<svg width="446" height="335" viewBox="0 0 446 335" fill="none" xmlns="http://www.w3.org/2000/svg">
<path fill-rule="evenodd" clip-rule="evenodd" d="M269.9 173.1C260.8 162 237.4 144 237.4 134.7V99.2H242.3C243.4 99.2 244.3 98.3 244.3 97.2V92.6C244.3 91.5 243.4 90.6 242.3 90.6H200.2C199.1 90.6 198.2 91.5 198.2 92.6V97.2C198.2 98.3 199.1 99.2 200.2 99.2H205.2V134.7C205.2 144 181.8 162 172.7 173.1C163.6 184.2 152.3 195.7 152.3 212.6C152.3 229.5 168.4 238.1 187.2 238.1H255.4C274.3 238.1 290.3 229.4 290.3 212.6C290.4 195.7 279 184.2 269.9 173.1Z" fill="#2A337B"/>
<path d="M242.5 54.1C247.9 42.5 266.4 34 266.4 34C236.3 39.7 222.3 74 222.3 74C215.2 58.2 197.9 60.8 197.9 60.8C220.3 68.6 217.2 91.4 217.2 91.4H225C232.8 35.7 293.8 63.5 293.8 63.5C272.2 46.2 242.5 54.1 242.5 54.1Z" fill="white"/>
<path fill-rule="evenodd" clip-rule="evenodd" d="M328.201 49.4C328.201 49.4 321.5 47.5 318.5 46.5C315.5 45.5 309.101 43.7 304.301 47.8C299.501 51.9 297 57.4 297 57.4C297 57.4 304.601 65.6 314.801 63.7C325.001 61.8 328.201 49.4 328.201 49.4Z" fill="white"/>
<path fill-rule="evenodd" clip-rule="evenodd" d="M301.7 33.9C311.8 32 315.1 19.6 315.1 19.6C315.1 19.6 308.4 17.7 305.4 16.7C302.4 15.7 296 13.9 291.2 18C286.4 22.1 283.9 27.6 283.9 27.6C283.9 27.6 291.5 35.8 301.7 33.9Z" fill="white"/>
<path fill-rule="evenodd" clip-rule="evenodd" d="M299.6 71.4C294.6 68.9 289.3 68.6 289.3 68.6C289.3 68.6 285.1 77.5 290 85.1C294.9 92.7 306.2 91.4 306.2 91.4C306.2 91.4 305.5 85.4 305.4 82.6C305.3 79.8 304.6 74 299.6 71.4Z" fill="white"/>
<path fill-rule="evenodd" clip-rule="evenodd" d="M283.2 17.4C286.6 14.3 285.9 9.5 285.4 7.2C284.9 5 284.2 0 284.2 0C284.2 0 275 1.3 272.8 8.5C270.5 15.7 275.7 21.9 275.7 21.9C275.7 21.9 279.8 20.5 283.2 17.4Z" fill="white"/>
<path fill-rule="evenodd" clip-rule="evenodd" d="M266.8 21.7C269.7 16.7 267 11.2 265.6 8.70001C264.2 6.20001 261.4 0.600006 261.4 0.600006C261.4 0.600006 250.9 5.70001 250.9 15.1C250.9 24.5 259.5 29.9 259.5 29.9C259.5 29.9 263.9 26.7 266.8 21.7Z" fill="white"/>
<path fill-rule="evenodd" clip-rule="evenodd" d="M238.5 15.6C238.5 15.6 230.1 20.7 230.9 28.6C231.7 36.5 239.4 40.3 239.4 40.3C239.4 40.3 242.9 37.3 244.9 32.8C246.9 28.4 244.2 24 242.8 22C241.3 20.1 238.5 15.6 238.5 15.6Z" fill="white"/>
<path fill-rule="evenodd" clip-rule="evenodd" d="M224.5 33.7C224.5 33.7 214.7 34.5 211.9 41.9C209.1 49.3 214.2 56.2 214.2 56.2C214.2 56.2 218.6 55 222.4 52C226.2 48.9 225.7 43.8 225.4 41.4C225 39.1 224.5 33.7 224.5 33.7Z" fill="white"/>
<path fill-rule="evenodd" clip-rule="evenodd" d="M188.5 52.2C185.5 48.4 180.4 48.7 178 49C175.6 49.3 170.3 49.7 170.3 49.7C170.3 49.7 170.9 59.5 178.2 62.5C185.5 65.5 192.5 60.5 192.5 60.5C192.5 60.5 191.4 56 188.5 52.2Z" fill="white"/>
<path fill-rule="evenodd" clip-rule="evenodd" d="M190.9 68.6C186.4 70.6 185.5 75.7 185.3 78.1C185 80.5 184.1 85.8 184.1 85.8C184.1 85.8 193.8 87.6 198.5 81.2C203.2 74.8 200 66.7 200 66.7C200 66.7 195.4 66.6 190.9 68.6Z" fill="white"/>
<path fill-rule="evenodd" clip-rule="evenodd" d="M196.7 31.5C196.7 31.5 189.1 37.9 191.1 45.7C193.1 53.5 201.3 56.2 201.3 56.2C201.3 56.2 204.3 52.6 205.6 47.9C206.9 43.1 203.6 39.2 201.9 37.4C200.2 35.6 196.7 31.5 196.7 31.5Z" fill="white"/>
<path fill-rule="evenodd" clip-rule="evenodd" d="M291.6 43.6C291.6 43.6 287 40.3 285 38.7C283 37.1 278.6 34 273.8 35.8C269 37.6 265.6 41.1 265.6 41.1C265.6 41.1 269.1 49.5 277.4 50.8C285.8 52.2 291.6 43.6 291.6 43.6Z" fill="white"/>
<path fill-rule="evenodd" clip-rule="evenodd" d="M331.4 77.1C330.2 74.8 327.4 69.9 322.1 69.6C316.8 69.3 312.1 71.1 312.1 71.1C312.1 71.1 311.9 80.5 319.1 85.3C326.3 90.1 335.5 84.6 335.5 84.6C335.5 84.6 332.6 79.4 331.4 77.1Z" fill="white"/>
<path fill-rule="evenodd" clip-rule="evenodd" d="M274.201 67.7C269.201 63.9 263.301 62.5 263.301 62.5C263.301 62.5 256.801 71.7 260.801 81.2C264.801 90.7 277.601 91.4 277.601 91.4C277.601 91.4 278.101 84.5 278.401 81.3C278.801 78.2 279.201 71.5 274.201 67.7Z" fill="white"/>
<path fill-rule="evenodd" clip-rule="evenodd" d="M269.9 173.1C260.8 162 237.4 144 237.4 134.7V99.2H242.3C243.4 99.2 244.3 98.3 244.3 97.2V92.5999C244.3 91.4999 243.4 90.5999 242.3 90.5999H200.2C199.1 90.5999 198.2 91.4999 198.2 92.5999V97.2C198.2 98.3 199.1 99.2 200.2 99.2H205.2V134.7C205.2 144 181.8 162 172.7 173.1C163.6 184.2 152.3 195.7 152.3 212.6C152.3 229.5 168.4 238.1 187.2 238.1H255.4C274.3 238.1 290.3 229.4 290.3 212.6C290.4 195.7 279 184.2 269.9 173.1Z" fill="white"/>
<path d="M0 320.9V243.1H18.1C27.6 243.1 36.2 246.9 36.2 258.8V274.7C36.2 286.6 27.6 290.4 18.1 290.4H15.4V320.8H0V320.9ZM15.4 279.4H17.3C19.8 279.4 20.9 278.2 20.9 274.5V259.2C20.9 255.5 19.8 254.3 17.3 254.3H15.4V279.4Z" fill="white"/>
<path d="M42.8999 320.9V243.1H56.7999V263.9H57.2999C57.7999 260.1 62.6999 257.7 66.3999 257.7C75.1999 257.7 75.5999 264.1 75.5999 271.4V321H61.6999V272.4C61.6999 270.9 60.9999 269.1 59.1999 269.1C57.2999 269.1 56.7999 270.8 56.7999 272.4V321H42.8999V320.9Z" fill="white"/>
<path d="M82 271.8C82 262.4 89.4 257.7 98.3 257.7C107 257.7 114.7 262.4 114.7 271.8V308.3C114.7 312.7 115.4 316.8 115.7 321H101.6L100.8 314.7H100.6C98.7 319.7 95.4 321.8 91.3 321.8C84.3 321.8 82 317.6 82 310.5V297.1C82 281.4 100.8 287.4 100.8 273.8V271.3C100.8 269.8 100.1 268 98.3 268C96.4 268 95.9 269.7 95.9 271.3V280.3H82V271.8ZM95.9 308.1C95.9 309.6 96.4 311.4 98.3 311.4C100.2 311.4 100.8 309.7 100.8 308.1V290.1L98.3 291.8C96.3 293.5 95.9 294 95.9 296.7V308.1Z" fill="white"/>
<path d="M135 263.8H135.2C137.3 260 140.3 257.7 145.1 257.7C152 257.7 153.7 261.9 153.7 268.6V292.1H139.8V272.3C139.8 270.8 139.1 269 137.3 269C135.4 269 134.9 270.7 134.9 272.3V320.9H121.1V258.4H135V263.8Z" fill="white"/>
<path d="M173.8 264H174C176.2 259.8 177.7 257.7 183.3 257.7C188.2 257.7 190.6 259.1 192.3 264.1C194.7 259.9 196.2 257.7 201.8 257.7C210.5 257.7 211.4 264.6 211.4 269.3V321H197.5V272.4C197.5 270.9 196.8 269.1 195 269.1C193.2 269.1 192.6 270.8 192.6 272.4V321H178.7V272.4C178.7 270.9 178 269.1 176.2 269.1C174.4 269.1 173.8 270.8 173.8 272.4V321H159.9V258.4H173.8V264Z" fill="white"/>
<path d="M217.6 271.8C217.6 262.4 225 257.7 233.9 257.7C242.6 257.7 250.3 262.4 250.3 271.8V308.3C250.3 312.7 251 316.8 251.3 321H237.1L236.3 314.7H236.1C234.2 319.7 230.9 321.8 226.8 321.8C219.8 321.8 217.5 317.6 217.5 310.5V297.1C217.5 281.4 236.3 287.4 236.3 273.8V271.3C236.3 269.8 235.6 268 233.8 268C231.9 268 231.4 269.7 231.4 271.3V280.3H217.5V271.8H217.6ZM231.4 308.1C231.4 309.6 231.9 311.4 233.8 311.4C235.7 311.4 236.3 309.7 236.3 308.1V290.1L233.8 291.8C231.8 293.5 231.4 294 231.4 296.7V308.1Z" fill="white"/>
<path d="M270.8 265H271C271.9 260.6 275.4 257.7 279.5 257.7C288.1 257.7 289.5 264.7 289.5 271.7V308.1C289.5 315.1 288.1 321.8 279.5 321.8C275.3 321.8 271.9 319.2 271 315.6H270.8V335H256.9V258.4H270.8V265ZM275.7 272.3C275.7 270.8 275 269 273.2 269C271.3 269 270.8 270.7 270.8 272.3V307C270.8 308.5 271.3 310.3 273.2 310.3C275.1 310.3 275.7 308.6 275.7 307V272.3Z" fill="white"/>
<path d="M296.1 320.9V243.1H310V320.9H296.1Z" fill="white"/>
<path d="M316.8 271.8C316.8 262.4 324.2 257.7 333.1 257.7C341.8 257.7 349.5 262.4 349.5 271.8V308.3C349.5 312.7 350.2 316.8 350.5 321H336.4L335.6 314.7H335.4C333.5 319.7 330.2 321.8 326.1 321.8C319.1 321.8 316.8 317.6 316.8 310.5V297.1C316.8 281.4 335.6 287.4 335.6 273.8V271.3C335.6 269.8 334.9 268 333.1 268C331.2 268 330.7 269.7 330.7 271.3V280.3H316.8V271.8ZM330.6 308.1C330.6 309.6 331.1 311.4 333 311.4C334.9 311.4 335.5 309.7 335.5 308.1V290.1L333 291.8C331 293.5 330.6 294 330.6 296.7V308.1Z" fill="white"/>
<path d="M369.7 263.9H369.9C370.8 260.1 375.6 257.7 379.3 257.7C388.1 257.7 388.5 264.1 388.5 271.4V321H374.6V272.4C374.6 270.9 373.9 269.1 372.1 269.1C370.2 269.1 369.7 270.8 369.7 272.4V321H355.8V258.4H369.7V263.9Z" fill="white"/>
<path d="M411 258.4H414.8V268.7H411V306.4C411 308.4 411.3 310.7 413.4 310.7H415V321H408.8C398.9 321 397.1 317.9 397.1 308.3V268.8H393.4V258.4H397.1V247H411V258.4Z" fill="white"/>
<path d="M418.7 258.5C418.7 250.3 425.2 245.6 432.1 245.6C439 245.6 445.5 250.3 445.5 258.5C445.5 266.7 439 271.4 432.1 271.4C425.2 271.4 418.7 266.7 418.7 258.5ZM432.1 248.8C427 248.8 422.9 252.7 422.9 258.5C422.9 264.3 427 268.2 432.1 268.2C437.1 268.2 441.3 264.2 441.3 258.5C441.3 252.7 437.1 248.8 432.1 248.8ZM430.1 265.5H426.9V251.4H432.1C435.8 251.4 438 252.4 438 255.7C438 258.3 436.5 259.3 434 259.4L437.6 265.5H434.4L431.2 259.7H430.1V265.5ZM432.7 257.1C433.9 257.1 434.6 256.8 434.6 255.4C434.6 254 433 254 432 254H430V257.2H432.7V257.1Z" fill="white"/>
</svg>
