<svg width="184" height="239" viewBox="0 0 184 239" fill="none" xmlns="http://www.w3.org/2000/svg">
<g clip-path="url(#clip0_130_461)">
<path d="M90.1996 54.1C95.5996 42.5 114.1 34 114.1 34C83.9996 39.7 69.9996 74 69.9996 74C62.8996 58.2 45.5996 60.8 45.5996 60.8C67.9996 68.6 64.8996 91.4 64.8996 91.4H72.6996C80.4996 35.7 141.5 63.5 141.5 63.5C119.9 46.2 90.1996 54.1 90.1996 54.1Z" fill="#2A337B"/>
<path fill-rule="evenodd" clip-rule="evenodd" d="M117.6 173.1C108.5 162 85.1 144 85.1 134.7V99.1999H90C91.1 99.1999 92 98.2999 92 97.1999V92.5999C92 91.4999 91.1 90.5999 90 90.5999H47.9C46.8 90.5999 45.9 91.4999 45.9 92.5999V97.1999C45.9 98.2999 46.8 99.1999 47.9 99.1999H52.9V134.7C52.9 144 29.5 162 20.4 173.1C11.3 184.2 0 195.7 0 212.6C0 229.5 16.1 238.1 34.9 238.1H103.1C122 238.1 138 229.4 138 212.6C138.1 195.7 126.7 184.2 117.6 173.1Z" fill="#2A337B"/>
<path fill-rule="evenodd" clip-rule="evenodd" d="M175.9 49.4C175.9 49.4 169.2 47.5 166.2 46.5C163.2 45.5 156.8 43.7 152 47.8C147.2 51.9 144.7 57.4 144.7 57.4C144.7 57.4 152.3 65.6 162.5 63.7C172.7 61.8 175.9 49.4 175.9 49.4Z" fill="#35974A"/>
<path fill-rule="evenodd" clip-rule="evenodd" d="M149.4 33.9C159.5 32 162.8 19.6 162.8 19.6C162.8 19.6 156.1 17.7 153.1 16.7C150.1 15.7 143.7 13.9 138.9 18C134.1 22.1 131.6 27.6 131.6 27.6C131.6 27.6 139.2 35.8 149.4 33.9Z" fill="#35974A"/>
<path fill-rule="evenodd" clip-rule="evenodd" d="M147.3 71.4C142.3 68.9 137 68.6 137 68.6C137 68.6 132.8 77.5 137.7 85.1C142.6 92.7 153.9 91.4 153.9 91.4C153.9 91.4 153.2 85.4 153.1 82.6C153 79.8 152.3 74 147.3 71.4Z" fill="#35974A"/>
<path fill-rule="evenodd" clip-rule="evenodd" d="M130.9 17.4C134.3 14.3 133.6 9.5 133.1 7.2C132.6 5 131.9 0 131.9 0C131.9 0 122.7 1.3 120.5 8.5C118.2 15.7 123.4 21.9 123.4 21.9C123.4 21.9 127.5 20.5 130.9 17.4Z" fill="#35974A"/>
<path fill-rule="evenodd" clip-rule="evenodd" d="M114.5 21.7C117.4 16.7 114.7 11.2 113.3 8.69998C111.9 6.19998 109.1 0.599976 109.1 0.599976C109.1 0.599976 98.5996 5.69998 98.5996 15.1C98.5996 24.5 107.2 29.9 107.2 29.9C107.2 29.9 111.6 26.7 114.5 21.7Z" fill="#35974A"/>
<path fill-rule="evenodd" clip-rule="evenodd" d="M86.1996 15.6C86.1996 15.6 77.7996 20.7 78.5996 28.6C79.3996 36.5 87.0996 40.3 87.0996 40.3C87.0996 40.3 90.5996 37.3 92.5996 32.8C94.5996 28.4 91.8996 24 90.4996 22C88.9996 20.1 86.1996 15.6 86.1996 15.6Z" fill="#35974A"/>
<path fill-rule="evenodd" clip-rule="evenodd" d="M72.2004 33.7C72.2004 33.7 62.4004 34.5 59.6004 41.9C56.8004 49.3 61.9004 56.2 61.9004 56.2C61.9004 56.2 66.3004 55 70.1004 52C73.9004 48.9 73.4004 43.8 73.1004 41.4C72.7004 39.1 72.2004 33.7 72.2004 33.7Z" fill="#35974A"/>
<path fill-rule="evenodd" clip-rule="evenodd" d="M36.2 52.2C33.2 48.4 28.1 48.7 25.7 49C23.3 49.3 18 49.7 18 49.7C18 49.7 18.6 59.5 25.9 62.5C33.2 65.5 40.2 60.5 40.2 60.5C40.2 60.5 39.1 56 36.2 52.2Z" fill="#35974A"/>
<path fill-rule="evenodd" clip-rule="evenodd" d="M38.5998 68.6C34.0998 70.6 33.1998 75.7 32.9998 78.1C32.6998 80.5 31.7998 85.8 31.7998 85.8C31.7998 85.8 41.4998 87.6 46.1998 81.2C50.8998 74.8 47.6998 66.7 47.6998 66.7C47.6998 66.7 43.0998 66.6 38.5998 68.6Z" fill="#35974A"/>
<path fill-rule="evenodd" clip-rule="evenodd" d="M44.4002 31.5C44.4002 31.5 36.8002 37.9 38.8002 45.7C40.8002 53.5 49.0002 56.2 49.0002 56.2C49.0002 56.2 52.0002 52.6 53.3002 47.9C54.6002 43.1 51.3001 39.2 49.6001 37.4C47.9001 35.6 44.4002 31.5 44.4002 31.5Z" fill="#35974A"/>
<path fill-rule="evenodd" clip-rule="evenodd" d="M139.3 43.6C139.3 43.6 134.7 40.3 132.7 38.7C130.7 37.1 126.3 34 121.5 35.8C116.7 37.6 113.3 41.1 113.3 41.1C113.3 41.1 116.8 49.5 125.1 50.8C133.5 52.2 139.3 43.6 139.3 43.6Z" fill="#35974A"/>
<path fill-rule="evenodd" clip-rule="evenodd" d="M179.1 77.1C177.9 74.8 175.1 69.9 169.8 69.6C164.5 69.3 159.8 71.1 159.8 71.1C159.8 71.1 159.6 80.5 166.8 85.3C174 90.1 183.2 84.6 183.2 84.6C183.2 84.6 180.3 79.4 179.1 77.1Z" fill="#35974A"/>
<path fill-rule="evenodd" clip-rule="evenodd" d="M121.9 67.7C116.9 63.9 111 62.5 111 62.5C111 62.5 104.5 71.7 108.5 81.2C112.5 90.7 125.3 91.4 125.3 91.4C125.3 91.4 125.8 84.5 126.1 81.3C126.5 78.2 126.9 71.5 121.9 67.7Z" fill="#35974A"/>
</g>
<defs>
<clipPath id="clip0_130_461">
<rect width="183.2" height="238.1" fill="white"/>
</clipPath>
</defs>
</svg>
